<svg width="536" height="887" viewBox="0 0 536 887" fill="none" xmlns="http://www.w3.org/2000/svg">
<path d="M30.9488 808.038C9.43043 813.036 -3.96133 834.533 1.0375 856.051C6.03633 877.57 27.5328 890.961 49.0512 885.962L30.9488 808.038ZM146.69 0.542419C124.898 -3.08337 104.293 11.6431 100.667 33.4349L41.581 388.553C37.9552 410.345 52.6816 430.95 74.4735 434.576C96.2653 438.201 116.87 423.475 120.496 401.683L173.017 86.0226L488.677 138.543C510.469 142.169 531.074 127.443 534.7 105.651C538.326 83.8591 523.599 63.2541 501.808 59.6283L146.69 0.542419ZM49.0512 885.962C191.073 852.97 288.185 801.4 347.007 732.956C406.978 663.175 422.86 580.924 412.583 497.235C402.466 414.843 366.981 329.682 322.78 248.841C278.381 167.638 223.627 88.0439 172.667 16.7415L107.581 63.2585C158.214 134.103 210.616 210.458 252.587 287.22C294.755 364.343 324.852 439.164 333.18 506.985C341.349 573.509 328.541 631.703 286.334 680.814C242.978 731.262 164.427 777.03 30.9488 808.038L49.0512 885.962Z" fill="#F5F5F5"/>
</svg>
