<svg width="24" height="24" viewBox="0 0 24 24" fill="none" xmlns="http://www.w3.org/2000/svg">
<path d="M16 20H5.6C5.03995 20 4.75992 20 4.54601 19.891C4.35785 19.7951 4.20487 19.6422 4.10899 19.454C4 19.2401 4 18.9601 4 18.4V7.2C4 6.07989 4 5.51984 4.21799 5.09202C4.40973 4.71569 4.71569 4.40973 5.09202 4.21799C5.51984 4 6.0799 4 7.2 4H8.67452C9.1637 4 9.40829 4 9.63846 4.05526C9.84254 4.10425 10.0376 4.18506 10.2166 4.29472C10.4184 4.4184 10.5914 4.59135 10.9373 4.93726L11.0627 5.06274C11.4086 5.40865 11.5816 5.5816 11.7834 5.70528C11.9624 5.81494 12.1575 5.89575 12.3615 5.94474C12.5917 6 12.8363 6 13.3255 6H15.8C16.9201 6 17.4802 6 17.908 6.21799C18.2843 6.40973 18.5903 6.71569 18.782 7.09202C19 7.51984 19 8.07989 19 9.2V12.5" stroke="#F5F5F5" stroke-width="2" stroke-linecap="round" stroke-linejoin="round"/>
<path fill-rule="evenodd" clip-rule="evenodd" d="M6.8911 10.6882C6.64791 10.968 6.50992 11.3475 6.23395 12.1064L5.342 14.5592C4.55405 16.726 4.16008 17.8093 4.36012 18.675C4.53514 19.4325 4.99737 20.0924 5.64939 20.5157C6.39459 20.9996 7.54739 20.9996 9.85298 20.9996H16.7586C17.5661 20.9996 17.9699 20.9996 18.316 20.8667C18.6217 20.7493 18.894 20.5586 19.1088 20.3114C19.352 20.0315 19.49 19.6521 19.7659 18.8932L21.8289 13.2202C22.2229 12.1368 22.4199 11.5951 22.3199 11.1623C22.2323 10.7836 22.0012 10.4536 21.6752 10.2419C21.3026 10 20.7262 10 19.5734 10H9.24128C8.43377 10 8.03001 10 7.68388 10.1329C7.37814 10.2503 7.10591 10.441 6.8911 10.6882ZM9.99994 14C9.44765 14 8.99994 14.4477 8.99994 15C8.99994 15.5523 9.44765 16 9.99994 16H16.9999C17.5522 16 17.9999 15.5523 17.9999 15C17.9999 14.4477 17.5522 14 16.9999 14H9.99994Z" fill="#F5F5F5"/>
</svg>
