<svg width="29" height="34" viewBox="0 0 29 34" fill="none" xmlns="http://www.w3.org/2000/svg">
<path d="M4.22445 23.5317C21.7245 41.5316 30.6821 15.5 12 6" stroke="#364958" stroke-width="4" stroke-linecap="round"/>
<path d="M8.91189 1.5026C8.0849 1.5514 7.45405 2.26137 7.50285 3.08835L8.29803 16.5649C8.34683 17.3919 9.05679 18.0228 9.88378 17.974C10.7108 17.9252 11.3416 17.2152 11.2928 16.3882L10.586 4.40904L22.5652 3.70221C23.3921 3.65341 24.023 2.94345 23.9742 2.11646C23.9254 1.28947 23.2154 0.658623 22.3885 0.70742L8.91189 1.5026ZM15.5286 6.79423L9.99659 1.87871L8.0039 4.12129L13.5359 9.03682L15.5286 6.79423Z" fill="#364958"/>
</svg>
