<svg width="117" height="34" viewBox="0 0 117 34" fill="none" xmlns="http://www.w3.org/2000/svg">
<path d="M1.32102 27V9.54545H8.53125C9.83807 9.54545 10.9659 9.80114 11.9148 10.3125C12.8693 10.8182 13.6051 11.5256 14.1222 12.4347C14.6392 13.3381 14.8977 14.3892 14.8977 15.5881C14.8977 16.7926 14.6335 17.8466 14.1051 18.75C13.5824 19.6477 12.8352 20.3437 11.8636 20.8381C10.892 21.3324 9.73864 21.5795 8.40341 21.5795H3.95455V18.2557H7.61932C8.25568 18.2557 8.78693 18.1449 9.21307 17.9233C9.64489 17.7017 9.97159 17.392 10.1932 16.9943C10.4148 16.5909 10.5256 16.1222 10.5256 15.5881C10.5256 15.0483 10.4148 14.5824 10.1932 14.1903C9.97159 13.7926 9.64489 13.4858 9.21307 13.2699C8.78125 13.054 8.25 12.946 7.61932 12.946H5.53977V27H1.32102ZM22.8388 27.2472C21.4695 27.2472 20.2876 26.9773 19.2933 26.4375C18.3047 25.892 17.5433 25.1165 17.0092 24.1108C16.4808 23.0994 16.2166 21.8977 16.2166 20.5057C16.2166 19.1534 16.4837 17.9716 17.0178 16.9602C17.5518 15.9432 18.3047 15.1534 19.2763 14.5909C20.2479 14.0227 21.3928 13.7386 22.7109 13.7386C23.6428 13.7386 24.495 13.8835 25.2678 14.1733C26.0405 14.4631 26.7081 14.892 27.2706 15.4602C27.8331 16.0284 28.2706 16.7301 28.5831 17.5653C28.8956 18.3949 29.0518 19.3466 29.0518 20.4205V21.4602H17.674V19.0398H25.174C25.1683 18.5966 25.0632 18.2017 24.8587 17.8551C24.6541 17.5085 24.3729 17.2386 24.0149 17.0455C23.6626 16.8466 23.2564 16.7472 22.7962 16.7472C22.3303 16.7472 21.9126 16.8523 21.5433 17.0625C21.174 17.267 20.8814 17.5483 20.6655 17.9062C20.4496 18.2585 20.3359 18.6591 20.3246 19.108V21.571C20.3246 22.1051 20.4297 22.5739 20.6399 22.9773C20.8501 23.375 21.1484 23.6847 21.5348 23.9062C21.9212 24.1278 22.3814 24.2386 22.9155 24.2386C23.2848 24.2386 23.62 24.1875 23.9212 24.0852C24.2223 23.983 24.4808 23.8324 24.6967 23.6335C24.9126 23.4347 25.0746 23.1903 25.1825 22.9006L29.0092 23.0114C28.8501 23.8693 28.5007 24.6165 27.9609 25.2528C27.4268 25.8835 26.7251 26.375 25.8558 26.7273C24.9865 27.0739 23.9808 27.2472 22.8388 27.2472ZM37.2997 27.2472C35.9304 27.2472 34.7486 26.9773 33.7543 26.4375C32.7656 25.892 32.0043 25.1165 31.4702 24.1108C30.9418 23.0994 30.6776 21.8977 30.6776 20.5057C30.6776 19.1534 30.9446 17.9716 31.4787 16.9602C32.0128 15.9432 32.7656 15.1534 33.7372 14.5909C34.7088 14.0227 35.8537 13.7386 37.1719 13.7386C38.1037 13.7386 38.956 13.8835 39.7287 14.1733C40.5014 14.4631 41.169 14.892 41.7315 15.4602C42.294 16.0284 42.7315 16.7301 43.044 17.5653C43.3565 18.3949 43.5128 19.3466 43.5128 20.4205V21.4602H32.1349V19.0398H39.6349C39.6293 18.5966 39.5241 18.2017 39.3196 17.8551C39.1151 17.5085 38.8338 17.2386 38.4759 17.0455C38.1236 16.8466 37.7173 16.7472 37.2571 16.7472C36.7912 16.7472 36.3736 16.8523 36.0043 17.0625C35.6349 17.267 35.3423 17.5483 35.1264 17.9062C34.9105 18.2585 34.7969 18.6591 34.7855 19.108V21.571C34.7855 22.1051 34.8906 22.5739 35.1009 22.9773C35.3111 23.375 35.6094 23.6847 35.9957 23.9062C36.3821 24.1278 36.8423 24.2386 37.3764 24.2386C37.7457 24.2386 38.081 24.1875 38.3821 24.0852C38.6832 23.983 38.9418 23.8324 39.1577 23.6335C39.3736 23.4347 39.5355 23.1903 39.6435 22.9006L43.4702 23.0114C43.3111 23.8693 42.9616 24.6165 42.4219 25.2528C41.8878 25.8835 41.1861 26.375 40.3168 26.7273C39.4474 27.0739 38.4418 27.2472 37.2997 27.2472ZM45.6413 27V13.9091H49.6896V16.2955H49.826C50.0646 15.4318 50.4538 14.7898 50.9936 14.3693C51.5334 13.9432 52.1612 13.7301 52.8771 13.7301C53.0703 13.7301 53.2692 13.7443 53.4737 13.7727C53.6783 13.7955 53.8686 13.8324 54.0447 13.8835V17.5057C53.8459 17.4375 53.5845 17.3835 53.2607 17.3438C52.9425 17.304 52.6584 17.2841 52.4084 17.2841C51.9141 17.2841 51.468 17.3949 51.0703 17.6165C50.6783 17.8324 50.3686 18.1364 50.1413 18.5284C49.9197 18.9148 49.8089 19.3693 49.8089 19.892V27H45.6413ZM66.3026 9.54545H70.5128V20.804C70.5128 22.1051 70.2031 23.2386 69.5838 24.2045C68.9645 25.1648 68.1009 25.9091 66.9929 26.4375C65.8849 26.9602 64.598 27.2216 63.1321 27.2216C61.6491 27.2216 60.3537 26.9602 59.2457 26.4375C58.1378 25.9091 57.277 25.1648 56.6634 24.2045C56.0497 23.2386 55.7429 22.1051 55.7429 20.804V9.54545H59.9616V20.4375C59.9616 21.0398 60.0923 21.5767 60.3537 22.0483C60.6207 22.5199 60.9929 22.8892 61.4702 23.1562C61.9474 23.4233 62.5014 23.5568 63.1321 23.5568C63.7628 23.5568 64.3139 23.4233 64.7855 23.1562C65.2628 22.8892 65.6349 22.5199 65.902 22.0483C66.169 21.5767 66.3026 21.0398 66.3026 20.4375V9.54545ZM73.157 31.9091V13.9091H77.282V16.1506H77.4098C77.5803 15.7528 77.8217 15.3693 78.1342 15C78.4524 14.6307 78.8558 14.3295 79.3445 14.0966C79.8388 13.858 80.4297 13.7386 81.1172 13.7386C82.0263 13.7386 82.8757 13.9773 83.6655 14.4545C84.4609 14.9318 85.103 15.6676 85.5916 16.6619C86.0803 17.6562 86.3246 18.9233 86.3246 20.4631C86.3246 21.946 86.0888 23.1875 85.6172 24.1875C85.1513 25.1875 84.5206 25.9375 83.7251 26.4375C82.9354 26.9375 82.0575 27.1875 81.0916 27.1875C80.4325 27.1875 79.8615 27.0795 79.3786 26.8636C78.8956 26.6477 78.4893 26.3636 78.1598 26.0114C77.8359 25.6591 77.5859 25.2812 77.4098 24.8778H77.3246V31.9091H73.157ZM77.2393 20.4545C77.2393 21.1591 77.3331 21.7727 77.5206 22.2955C77.7138 22.8182 77.9893 23.2244 78.3473 23.5142C78.7109 23.7983 79.1456 23.9403 79.6513 23.9403C80.1626 23.9403 80.5973 23.7983 80.9553 23.5142C81.3132 23.2244 81.5831 22.8182 81.7649 22.2955C81.9524 21.7727 82.0462 21.1591 82.0462 20.4545C82.0462 19.75 81.9524 19.1392 81.7649 18.6222C81.5831 18.1051 81.3132 17.7045 80.9553 17.4205C80.603 17.1364 80.1683 16.9943 79.6513 16.9943C79.1399 16.9943 78.7053 17.1335 78.3473 17.4119C77.9893 17.6903 77.7138 18.0881 77.5206 18.6051C77.3331 19.1222 77.2393 19.7386 77.2393 20.4545Z" fill="#364958"/>
<path d="M92.2244 23.5317C109.724 41.5316 118.682 15.5 100 6" stroke="#364958" stroke-width="4" stroke-linecap="round"/>
<path d="M96.9116 1.5026C96.0847 1.5514 95.4538 2.26137 95.5026 3.08835L96.2978 16.5649C96.3466 17.3919 97.0565 18.0228 97.8835 17.974C98.7105 17.9252 99.3414 17.2152 99.2926 16.3882L98.5857 4.40904L110.565 3.70221C111.392 3.65341 112.023 2.94345 111.974 2.11646C111.925 1.28947 111.215 0.658623 110.388 0.70742L96.9116 1.5026ZM103.528 6.79423L97.9963 1.87871L96.0037 4.12129L101.536 9.03682L103.528 6.79423Z" fill="#364958"/>
</svg>
