<svg width="25" height="25" viewBox="0 0 25 25" fill="none" xmlns="http://www.w3.org/2000/svg">
<path d="M20.1103 12.1849L20.9047 12.7923L21.3602 12.1965L20.9158 11.5923L20.1103 12.1849ZM8.12008 11.0737C7.56782 11.0686 7.11597 11.5121 7.11085 12.0644C7.10573 12.6166 7.54928 13.0685 8.10154 13.0736L8.12008 11.0737ZM17.8677 16.7643L20.9047 12.7923L19.3159 11.5775L16.2789 15.5495L17.8677 16.7643ZM20.9158 11.5923L17.953 7.56469L16.342 8.74981L19.3048 12.7774L20.9158 11.5923ZM20.1196 11.1849L8.12008 11.0737L8.10154 13.0736L20.101 13.1848L20.1196 11.1849Z" fill="#F5F5F5"/>
<path d="M13.0737 16.1198V16.1198C13.0651 17.0497 13.0608 17.5147 12.955 17.8952C12.668 18.9279 11.8519 19.729 10.8141 19.9968C10.4317 20.0955 9.96672 20.0912 9.03679 20.0826L8.03684 20.0733C6.16768 20.056 5.23311 20.0473 4.54071 19.6389C4.08711 19.3714 3.71193 18.9892 3.45286 18.5307C3.05741 17.8309 3.06607 16.8963 3.0834 15.0272L3.13901 9.02741C3.15634 7.15826 3.165 6.22368 3.57336 5.53128C3.84088 5.07769 4.22309 4.7025 4.68157 4.44343C5.38142 4.04798 6.31599 4.05664 8.18514 4.07397L9.1851 4.08324C10.115 4.09186 10.58 4.09617 10.9605 4.20192C11.9932 4.48891 12.7943 5.30501 13.0621 6.34282C13.1608 6.72525 13.1565 7.19021 13.1479 8.12014V8.12014" stroke="#F5F5F5" stroke-width="2" stroke-linecap="round"/>
</svg>
