<svg width="14" height="14" viewBox="0 0 14 14" fill="none" xmlns="http://www.w3.org/2000/svg">
<path d="M6.01246 4.21159C6.387 3.27785 6.57427 2.81099 6.87853 2.74628C6.95853 2.72927 7.04121 2.72927 7.12121 2.74628C7.42547 2.81099 7.61274 3.27785 7.98728 4.21159C8.20028 4.74258 8.30678 5.00808 8.50605 5.18866C8.56194 5.23931 8.62262 5.28442 8.68722 5.32336C8.91754 5.46218 9.20506 5.48793 9.78011 5.53943C10.7535 5.62661 11.2403 5.6702 11.3889 5.94772C11.4197 6.00519 11.4406 6.06742 11.4508 6.13182C11.5001 6.44275 11.1423 6.76829 10.4267 7.41936L10.2279 7.60016C9.89337 7.90454 9.72608 8.05674 9.62932 8.24667C9.57128 8.36061 9.53236 8.48331 9.51413 8.60987C9.48373 8.82085 9.53271 9.04164 9.63069 9.48322L9.66569 9.64099C9.84139 10.4329 9.92924 10.8288 9.81957 11.0234C9.72107 11.1983 9.53963 11.3102 9.33919 11.3198C9.11606 11.3304 8.80165 11.0742 8.17283 10.5618C7.75854 10.2242 7.55139 10.0554 7.32144 9.98951C7.11129 9.92925 6.88845 9.92925 6.6783 9.98951C6.44835 10.0554 6.2412 10.2242 5.82691 10.5618C5.19809 11.0742 4.88368 11.3304 4.66055 11.3198C4.46011 11.3102 4.27867 11.1983 4.18017 11.0234C4.0705 10.8288 4.15835 10.4329 4.33405 9.64099L4.36905 9.48322C4.46703 9.04164 4.51601 8.82085 4.48561 8.60987C4.46738 8.48331 4.42846 8.36061 4.37042 8.24667C4.27366 8.05674 4.10638 7.90454 3.77181 7.60016L3.57308 7.41936C2.85746 6.76829 2.49964 6.44275 2.54892 6.13182C2.55912 6.06742 2.58005 6.00519 2.61084 5.94772C2.75947 5.6702 3.24619 5.62661 4.21964 5.53943C4.79468 5.48793 5.0822 5.46218 5.31252 5.32336C5.37712 5.28442 5.4378 5.23931 5.49369 5.18866C5.69297 5.00808 5.79946 4.74258 6.01246 4.21159Z" fill="#FFE53D" stroke="#FFE53D" stroke-width="2"/>
</svg>
